<svg width="68" height="68" viewBox="0 0 68 68" fill="none" xmlns="http://www.w3.org/2000/svg">
<path d="M64.8763 15.9384C64.5703 15.7475 64.2208 15.6376 63.8607 15.619C63.5006 15.6004 63.1416 15.6738 62.8177 15.8322C51.4144 21.4103 43.2703 18.7966 34.6614 16.0394C25.6302 13.1467 16.2669 10.1584 3.33094 16.475C2.9695 16.6484 2.66448 16.9204 2.45109 17.2598C2.2377 17.5992 2.12465 17.9919 2.125 18.3928V50.2492C2.12495 50.6098 2.21664 50.9644 2.39143 51.2797C2.56623 51.5951 2.81839 51.8608 3.12418 52.0518C3.42996 52.2428 3.77933 52.3529 4.13938 52.3716C4.49944 52.3904 4.85835 52.3173 5.18234 52.1591C16.5856 46.5809 24.7297 49.1947 33.3519 51.9519C38.4625 53.5855 43.6688 55.2509 49.555 55.2509C54.0945 55.2509 59.0458 54.2628 64.6717 51.5163C65.029 51.3418 65.3303 51.0706 65.5411 50.7334C65.7519 50.3963 65.8639 50.0067 65.8644 49.6091V17.7527C65.8676 17.3912 65.7785 17.0349 65.6056 16.7174C65.4327 16.3999 65.1817 16.1318 64.8763 15.9384ZM61.625 48.257C50.8406 53.0834 42.9648 50.5653 34.6481 47.9064C29.5375 46.2728 24.3313 44.6073 18.445 44.6073C14.3095 44.6274 10.2161 45.4389 6.38563 46.998V19.7448C17.17 14.9184 25.0458 17.4366 33.3625 20.0955C41.6792 22.7544 50.2403 25.5009 61.625 21.0092V48.257ZM34 25.5009C32.3189 25.5009 30.6755 25.9995 29.2777 26.9334C27.8798 27.8674 26.7904 29.195 26.147 30.7481C25.5037 32.3013 25.3354 34.0104 25.6633 35.6592C25.9913 37.308 26.8008 38.8226 27.9896 40.0113C29.1783 41.2001 30.6929 42.0096 32.3417 42.3376C33.9906 42.6656 35.6996 42.4973 37.2528 41.8539C38.806 41.2106 40.1335 40.1211 41.0675 38.7233C42.0015 37.3255 42.5 35.6821 42.5 34.0009C42.5 31.7466 41.6045 29.5846 40.0104 27.9905C38.4163 26.3965 36.2543 25.5009 34 25.5009ZM34 38.2509C33.1594 38.2509 32.3377 38.0017 31.6388 37.5347C30.9399 37.0677 30.3952 36.4039 30.0735 35.6273C29.7518 34.8508 29.6677 33.9962 29.8317 33.1718C29.9956 32.3474 30.4004 31.5901 30.9948 30.9957C31.5892 30.4014 32.3464 29.9966 33.1709 29.8326C33.9953 29.6686 34.8498 29.7528 35.6264 30.0744C36.403 30.3961 37.0667 30.9409 37.5337 31.6398C38.0007 32.3387 38.25 33.1604 38.25 34.0009C38.25 35.1281 37.8022 36.2091 37.0052 37.0061C36.2082 37.8032 35.1272 38.2509 34 38.2509ZM14.875 25.5009V38.2509C14.875 38.8145 14.6511 39.355 14.2526 39.7535C13.8541 40.1521 13.3136 40.3759 12.75 40.3759C12.1864 40.3759 11.6459 40.1521 11.2474 39.7535C10.8489 39.355 10.625 38.8145 10.625 38.2509V25.5009C10.625 24.9374 10.8489 24.3969 11.2474 23.9983C11.6459 23.5998 12.1864 23.3759 12.75 23.3759C13.3136 23.3759 13.8541 23.5998 14.2526 23.9983C14.6511 24.3969 14.875 24.9374 14.875 25.5009ZM53.125 42.5009V29.7509C53.125 29.1874 53.3489 28.6469 53.7474 28.2483C54.1459 27.8498 54.6864 27.6259 55.25 27.6259C55.8136 27.6259 56.3541 27.8498 56.7526 28.2483C57.1511 28.6469 57.375 29.1874 57.375 29.7509V42.5009C57.375 43.0645 57.1511 43.605 56.7526 44.0035C56.3541 44.4021 55.8136 44.6259 55.25 44.6259C54.6864 44.6259 54.1459 44.4021 53.7474 44.0035C53.3489 43.605 53.125 43.0645 53.125 42.5009Z" fill="#6EAA31"/>
</svg>
