<svg width="68" height="68" viewBox="0 0 68 68" fill="none" xmlns="http://www.w3.org/2000/svg">
<path d="M48.1668 34.0007C40.3468 34.0007 34.0002 40.3473 34.0002 48.1673C34.0002 55.9873 40.3468 62.334 48.1668 62.334C55.9868 62.334 62.3335 55.9873 62.3335 48.1673C62.3335 40.3473 55.9868 34.0007 48.1668 34.0007ZM52.8418 54.8256L46.7502 48.734V39.6673H49.5835V47.5723L54.8252 52.814L52.8418 54.8256ZM51.0002 8.50065H41.9902C40.8002 5.21398 37.6835 2.83398 34.0002 2.83398C30.3168 2.83398 27.2002 5.21398 26.0102 8.50065H17.0002C13.8835 8.50065 11.3335 11.0507 11.3335 14.1673V56.6673C11.3335 59.784 13.8835 62.334 17.0002 62.334H34.3118C32.6356 60.707 31.2719 58.7863 30.2885 56.6673H17.0002V14.1673H22.6668V22.6673H45.3335V14.1673H51.0002V28.5606C53.0118 28.844 54.9102 29.439 56.6668 30.2607V14.1673C56.6668 11.0507 54.1168 8.50065 51.0002 8.50065ZM34.0002 14.1673C32.4418 14.1673 31.1668 12.8923 31.1668 11.334C31.1668 9.77565 32.4418 8.50065 34.0002 8.50065C35.5585 8.50065 36.8335 9.77565 36.8335 11.334C36.8335 12.8923 35.5585 14.1673 34.0002 14.1673Z" fill="#468ADA"/>
</svg>
