<svg width="68" height="68" viewBox="0 0 68 68" fill="none" xmlns="http://www.w3.org/2000/svg">
<path d="M26.2085 5.66602C26.7721 5.66602 27.3126 5.8899 27.7111 6.28841C28.1096 6.68693 28.3335 7.22743 28.3335 7.79102V14.8743C28.3335 15.4379 28.1096 15.9784 27.7111 16.377C27.3126 16.7755 26.7721 16.9993 26.2085 16.9993C25.6449 16.9993 25.1044 16.7755 24.7059 16.377C24.3074 15.9784 24.0835 15.4379 24.0835 14.8743V7.79102C24.0835 7.22743 24.3074 6.68693 24.7059 6.28841C25.1044 5.8899 25.6449 5.66602 26.2085 5.66602ZM12.6652 11.2477C13.0636 10.8497 13.6037 10.6262 14.1668 10.6262C14.73 10.6262 15.2701 10.8497 15.6685 11.2477L20.6268 16.206C20.8356 16.4006 21.0031 16.6352 21.1192 16.8958C21.2354 17.1565 21.2978 17.4379 21.3028 17.7232C21.3079 18.0085 21.2554 18.2919 21.1485 18.5565C21.0416 18.8211 20.8826 19.0615 20.6808 19.2633C20.479 19.4651 20.2386 19.6242 19.974 19.731C19.7094 19.8379 19.426 19.8904 19.1407 19.8854C18.8554 19.8803 18.574 19.8179 18.3133 19.7017C18.0526 19.5856 17.818 19.4181 17.6235 19.2093L12.6652 14.251C12.2672 13.8526 12.0437 13.3125 12.0437 12.7493C12.0437 12.1862 12.2672 11.6461 12.6652 11.2477ZM39.7518 11.2477C40.1498 11.6461 40.3733 12.1862 40.3733 12.7493C40.3733 13.3125 40.1498 13.8526 39.7518 14.251L34.7935 19.2093C34.599 19.4181 34.3644 19.5856 34.1037 19.7017C33.843 19.8179 33.5616 19.8803 33.2763 19.8854C32.991 19.8904 32.7076 19.8379 32.443 19.731C32.1784 19.6242 31.938 19.4651 31.7362 19.2633C31.5344 19.0615 31.3754 18.8211 31.2685 18.5565C31.1616 18.2919 31.1091 18.0085 31.1142 17.7232C31.1192 17.4379 31.1816 17.1565 31.2978 16.8958C31.4139 16.6352 31.5814 16.4006 31.7902 16.206L36.7485 11.2477C37.1469 10.8497 37.687 10.6262 38.2502 10.6262C38.8133 10.6262 39.3534 10.8497 39.7518 11.2477ZM7.0835 24.791C7.0835 24.2274 7.30738 23.6869 7.70589 23.2884C8.10441 22.8899 8.64491 22.666 9.2085 22.666H16.2918C16.8554 22.666 17.3959 22.8899 17.7944 23.2884C18.1929 23.6869 18.4168 24.2274 18.4168 24.791C18.4168 25.3546 18.1929 25.8951 17.7944 26.2936C17.3959 26.6921 16.8554 26.916 16.2918 26.916H9.2085C8.64491 26.916 8.10441 26.6921 7.70589 26.2936C7.30738 25.8951 7.0835 25.3546 7.0835 24.791ZM24.0835 26.8792C24.0835 23.686 27.8292 21.9633 30.2517 24.043L54.2245 44.5903C56.8028 46.8003 55.3352 51.0248 51.9437 51.1637L41.0637 51.5972C39.8935 51.6425 38.7942 52.1638 38.0122 53.0337L30.6058 61.3127C28.3193 63.8712 24.0835 62.2505 24.0835 58.8193V26.8792Z" fill="#FFB800"/>
</svg>
